<mxfile host="app.diagrams.net" modified="2023-10-19T14:20:16.230Z" agent="Mozilla/5.0 (Macintosh; Intel Mac OS X 10_15_7) AppleWebKit/537.36 (KHTML, like Gecko) Chrome/117.0.0.0 Safari/537.36" version="22.0.5" etag="IQCqMc_uzRiLVoEusBV5" type="github">
  <diagram name="Halaman-1" id="Wm9RQuxJwD0vVR84QPUG">
    <mxGraphModel>
      <root>
        <mxCell id="0" />
        <mxCell id="1" parent="0" />
      </root>
    </mxGraphModel>
  </diagram>
</mxfile>
